<svg width="120" height="120" viewBox="0 0 120 120" fill="none" xmlns="http://www.w3.org/2000/svg">
<g clip-path="url(#clip0_3099_21468)">
<circle opacity="0.1" r="60" transform="matrix(-1 0 0 1 60 60)" fill="#2D81F7"/>
<mask id="mask0_3099_21468" style="mask-type:alpha" maskUnits="userSpaceOnUse" x="0" y="0" width="120" height="120">
<circle r="60" transform="matrix(-1 0 0 1 60 60)" fill="#2D81F7"/>
</mask>
<g mask="url(#mask0_3099_21468)">
<path d="M2.53235 10.693C2.53235 4.78744 7.31978 0 13.2254 0H42.8899C48.7955 0 53.583 4.78743 53.583 10.693V24.8354C53.583 30.741 48.7955 35.5285 42.8899 35.5285H10.7882C8.55953 35.5285 6.38655 36.2248 4.573 37.5202L4.16863 37.809C3.48372 38.2983 2.53235 37.8087 2.53235 36.967V35.5285V10.693Z" fill="#A2D6FD"/>
<path d="M108.773 24.4904C108.773 18.5848 103.985 13.7974 98.0797 13.7974H68.4151C62.5095 13.7974 57.7221 18.5848 57.7221 24.4904V65.1929C57.7221 71.0985 62.5095 75.8859 68.4151 75.8859H100.517C102.746 75.8859 104.919 76.5823 106.732 77.8777L107.136 78.1665C107.821 78.6557 108.773 78.1662 108.773 77.3245V75.8859V24.4904Z" fill="#ADE7EE"/>
<path d="M53.5829 51.7409C53.5829 45.8353 48.7955 41.0479 42.8899 41.0479H13.2253C7.3197 41.0479 2.53228 45.8353 2.53228 51.7409V65.8833C2.53228 71.7889 7.31971 76.5763 13.2253 76.5763H45.327C47.5557 76.5763 49.7287 77.2727 51.5422 78.5681L51.9466 78.8569C52.6315 79.3461 53.5829 78.8565 53.5829 78.0148V76.5763V51.7409Z" fill="#A1BAFF"/>
<path fill-rule="evenodd" clip-rule="evenodd" d="M83.8379 65.6655C79.5518 51.8373 73.5537 32.4854 88.795 28.275C105.367 23.6972 109.659 42.6348 112.844 56.6855C113.147 58.0215 113.439 59.3133 113.732 60.5365C114.16 62.3282 113.328 64.1975 111.683 65.0261C109.459 66.1463 107.172 67.1262 104.838 67.962C106.298 72.4726 104.314 77.5041 99.9581 79.7341L97.2648 81.1129C92.4304 83.5877 86.5052 81.6749 84.0304 76.8405C82.4273 73.7091 82.6652 70.1199 84.3456 67.3072C84.1802 66.7698 84.0104 66.2221 83.8379 65.6655Z" fill="#522C2C"/>
<mask id="mask1_3099_21468" style="mask-type:alpha" maskUnits="userSpaceOnUse" x="78" y="27" width="36" height="56">
<path fill-rule="evenodd" clip-rule="evenodd" d="M83.8379 65.6655C79.5518 51.8373 73.5537 32.4854 88.795 28.275C105.367 23.6972 109.659 42.6348 112.844 56.6855C113.147 58.0215 113.439 59.3133 113.732 60.5365C114.16 62.3282 113.328 64.1975 111.683 65.0261C109.459 66.1463 107.172 67.1262 104.838 67.962C106.298 72.4726 104.314 77.5041 99.9581 79.7341L97.2648 81.1129C92.4304 83.5877 86.5052 81.6749 84.0304 76.8405C82.4273 73.7091 82.6652 70.1199 84.3456 67.3072C84.1802 66.7698 84.0104 66.2221 83.8379 65.6655Z" fill="#3F2121"/>
</mask>
<g mask="url(#mask1_3099_21468)">
<rect width="33.6402" height="25.8771" transform="matrix(-0.859613 0.510945 0.510945 0.859613 97.4971 51.9353)" fill="#3F2121"/>
</g>
<rect x="84.0176" y="57.2908" width="15.9829" height="27.3993" transform="rotate(-30.7268 84.0176 57.2908)" fill="#F9B8A4"/>
<rect x="84.0176" y="57.2908" width="15.9829" height="27.3993" transform="rotate(-30.7268 84.0176 57.2908)" fill="#F9B8A4"/>
<mask id="mask2_3099_21468" style="mask-type:alpha" maskUnits="userSpaceOnUse" x="89" y="49" width="15" height="20">
<path d="M98.2986 49.8352L89.6681 56.1221L97.1381 68.6895L103.1 57.9135L98.2986 49.8352Z" fill="#F9B8A4"/>
</mask>
<g mask="url(#mask2_3099_21468)">
<path d="M92.3089 64.1247C92.1531 63.7313 91.8725 62.0899 90.9924 61.8161L97.3221 59.5707C97.7475 59.4198 98.1321 59.774 97.8964 60.159C96.5965 62.2832 92.4599 64.5055 92.3089 64.1247Z" fill="#DB8C74"/>
</g>
<circle r="2.85409" transform="matrix(-0.859613 0.510945 0.510945 0.859613 85.0422 49.3775)" fill="#F49D82"/>
<path fill-rule="evenodd" clip-rule="evenodd" d="M85.2059 62.4663C89.7021 62.932 93.9974 57.0291 94.7997 49.282C95.6021 41.5348 92.6078 34.877 88.1117 34.4113C83.6596 33.9502 79.4045 39.7333 78.5425 47.3682C77.3976 48.1068 76.012 50.1576 76.1266 51.1353C76.2374 52.0802 77.4647 52.6844 78.5516 52.8124C79.2063 58.1309 81.7668 62.1101 85.2059 62.4663Z" fill="#F9B8A4"/>
<circle r="2.9307" transform="matrix(-0.634898 0.772596 0.772596 0.634898 85.4545 48.8493)" fill="#F49D82"/>
<path d="M86.7091 51.09C87.4151 50.4869 88.5167 50.5722 88.8038 51.4552C88.9776 51.9899 89.0444 52.5536 89.0003 53.1141C88.9563 53.6745 88.8023 54.2208 88.5472 54.7218C88.292 55.2228 87.9407 55.6686 87.5132 56.0338C87.0858 56.399 86.5906 56.6764 86.0559 56.8502C85.5213 57.024 84.9576 57.0908 84.3971 57.0468C83.8366 57.0028 83.2903 56.8488 82.7893 56.5936C81.962 56.1722 82.0497 55.0707 82.7556 54.4676L84.7324 52.7788L86.7091 51.09Z" fill="white"/>
<path d="M87.7094 125.471L87.7094 86.0164C87.7094 76.0485 94.1088 67.2069 103.578 64.0926L119.285 58.9263L131.175 101.15L87.7094 125.471Z" fill="#2D81F7"/>
<path d="M84.8472 43.7434C85.9303 43.0944 85.0969 40.6758 83.7058 39.0644C83.1925 38.4698 82.3097 38.5095 81.7103 39.0171C81.5336 39.1667 81.5518 39.448 81.7266 39.5998C83.166 40.8494 84.5524 43.92 84.8472 43.7434Z" fill="#522C2C"/>
<ellipse cx="81.2079" cy="43.8424" rx="1.29741" ry="0.904608" transform="rotate(-75.7268 81.2079 43.8424)" fill="#522C2C"/>
<path fill-rule="evenodd" clip-rule="evenodd" d="M91.4399 68.4524C92.9866 71.4739 95.8812 73.3541 99.0149 73.7352C99.999 73.8549 101.007 73.8267 102.004 73.6396C102.912 73.4692 103.81 73.1671 104.674 72.7248L107.368 71.346C107.661 71.196 107.943 71.0332 108.215 70.8589C110.167 71.6521 112.389 71.8263 114.575 71.2108C118.191 70.1925 120.763 67.2797 121.517 63.8502C121.644 63.7913 121.771 63.7296 121.897 63.6652L123.237 62.9793C128.416 60.3277 130.466 53.9793 127.814 48.7996C125.953 45.164 122.271 43.0705 118.449 43.0624C113.391 32.3933 106.322 21.4106 93.0384 28.2107C80.4742 34.6425 86.111 47.8794 91.9218 58.65C90.0919 61.5003 89.7852 65.2202 91.4399 68.4524Z" fill="#3F2121"/>
<rect width="31.7792" height="28.773" rx="6.75763" transform="matrix(-0.859011 0.511958 0.511958 0.859011 64.5133 59.9995)" fill="#3F2121"/>
<rect width="27.4847" height="9.01842" rx="4.50921" transform="matrix(-0.938048 0.346505 0.346505 0.938048 61.6281 63.229)" fill="#3F2121"/>
<rect width="27.4847" height="9.01842" rx="4.50921" transform="matrix(-0.945289 -0.326233 -0.326233 0.945289 66.8893 71.5359)" fill="#3F2121"/>
<rect width="7.46616" height="21.9984" rx="3.73308" transform="matrix(0.731392 -0.681957 -0.681957 -0.731392 70.3923 95.8618)" fill="#3F2121"/>
<path d="M48.6246 78.218L41.7342 88.1462C41.4885 88.5002 41.6699 88.9907 42.0869 89.0996L48.7542 90.8406L54.1549 100.919L54.8703 112.584L71.1693 112.393L69.2461 84.3137L48.6246 78.218Z" fill="#F9B8A4"/>
<path d="M48.6796 120.383C48.6698 116.576 50.7676 113.077 54.1297 111.292L65.0075 105.516C73.5296 100.991 83.8768 106.795 84.4581 116.426C84.9147 123.99 78.9501 130.397 71.3733 130.481L59.0579 130.619C53.3554 130.683 48.6943 126.086 48.6796 120.383Z" fill="#F67474"/>
<mask id="mask3_3099_21468" style="mask-type:alpha" maskUnits="userSpaceOnUse" x="54" y="94" width="17" height="23">
<path d="M67.0151 94.004L54.155 100.919L55.014 116.624L70.1667 99.2921L67.0151 94.004Z" fill="#F9B8A4"/>
</mask>
<g mask="url(#mask3_3099_21468)">
<path d="M53.3057 105.394C53.2138 104.817 53.3297 102.517 52.2246 101.883L61.8751 100.707C62.299 100.655 62.5968 101.067 62.3291 101.4C60.2008 104.045 53.3985 105.978 53.3057 105.394Z" fill="#DB8C74"/>
</g>
<circle r="3.39852" transform="matrix(-0.92647 0.376368 0.376368 0.92647 53.6758 89.3918)" fill="#F49D82"/>
<path d="M70.2876 88.6885C68.2009 105.62 48.7133 101.106 44.4749 99.9154C43.9814 99.7768 43.669 99.3265 43.6846 98.8142C43.7743 95.8699 44.2294 85.9049 46.3994 77.533C48.9773 67.5872 54.9295 67.5131 60.7016 69.0092C66.4737 70.5053 72.8655 78.7427 70.2876 88.6885Z" fill="#F9B8A4"/>
<circle r="6.87118" transform="matrix(-0.859011 0.511958 0.511958 0.859011 65.822 90.7161)" fill="#3F2121"/>
<ellipse rx="3.32955" ry="1.15116" transform="matrix(-0.984938 -0.17291 -0.17291 0.984938 47.0172 99.7327)" fill="#3F2121"/>
<circle r="3.48975" transform="matrix(-0.743499 0.668737 0.668737 0.743499 52.6381 87.8082)" fill="#F49D82"/>
<path d="M54.9754 82.101C56.0315 81.0309 54.352 78.4895 52.2691 77.0447C51.5006 76.5116 50.4945 76.8196 49.9541 77.5829C49.7948 77.8079 49.8993 78.127 50.146 78.25C52.177 79.2633 54.6879 82.3922 54.9754 82.101Z" fill="#522C2C"/>
<ellipse cx="50.1438" cy="82.1907" rx="1.09423" ry="1.57637" transform="rotate(21.0924 50.1438 82.1907)" fill="#522C2C"/>
<circle r="6.227" transform="matrix(-0.859011 0.511958 0.511958 0.859011 58.913 61.0885)" fill="#3F2121"/>
<circle r="6.227" transform="matrix(-0.859011 0.511958 0.511958 0.859011 70.6778 92.5724)" fill="#3F2121"/>
<path d="M63.991 85.1273L56.1561 71.9812C53.3505 74.4447 49.591 75.5261 45.9052 74.9296L43.4986 74.5401C43.3202 74.5113 43.2152 74.3237 43.2839 74.1565L44.2822 71.7265C44.8693 70.2976 45.9282 69.113 47.2826 68.37L55.0866 64.0888C58.3594 62.2933 62.4681 63.4917 64.2625 66.7651L70.0625 77.3456C71.4961 79.9609 71.0458 83.2068 68.9542 85.3329L68.6094 85.6835C67.2594 87.0558 64.9765 86.7809 63.991 85.1273Z" fill="#3F2121"/>
<circle r="8.15952" transform="matrix(-0.859011 0.511958 0.511958 0.859011 76.01 82.6454)" fill="#3F2121"/>
<circle r="6.227" transform="matrix(-0.859011 0.511958 0.511958 0.859011 65.673 66.5595)" fill="#3F2121"/>
<circle r="6.227" transform="matrix(-0.859011 0.511958 0.511958 0.859011 51.4644 64.5285)" fill="#3F2121"/>
<circle r="8.15952" transform="matrix(-0.859011 0.511958 0.511958 0.859011 72.7268 72.1032)" fill="#3F2121"/>
<path d="M60.9337 80.9664C61.4403 83.4627 61.6484 85.6791 63.3351 85.3368C63.9171 85.2187 67.5484 82.2232 67.0418 79.7269C66.5352 77.2305 64.7572 75.4843 63.0705 75.8265C61.3838 76.1688 60.4271 78.47 60.9337 80.9664Z" fill="#F9B8A4"/>
<path d="M64.4712 80.373C64.6323 80.4874 64.8557 80.4495 64.9701 80.2884C65.0844 80.1273 65.0466 79.9039 64.8855 79.7896C64.6505 79.6227 64.2602 79.4183 63.8339 79.3474C63.3995 79.275 62.8763 79.3376 62.4888 79.7863C62.3596 79.9359 62.3762 80.1618 62.5257 80.291C62.6753 80.4201 62.9012 80.4036 63.0303 80.254C63.0742 80.2033 63.1222 80.1622 63.1742 80.13C63.0965 80.2708 63.0404 80.4199 63.027 80.5797C63.0022 80.8757 63.1277 81.126 63.3126 81.3529C63.4375 81.5061 63.6628 81.5291 63.816 81.4043C63.9692 81.2794 63.9922 81.0541 63.8673 80.9009C63.7416 80.7466 63.737 80.6762 63.7401 80.6394C63.745 80.5799 63.7831 80.4767 63.9376 80.27C63.9698 80.2269 63.9908 80.179 64.0012 80.1297C64.1875 80.1973 64.3558 80.291 64.4712 80.373Z" fill="#DB8C74"/>
<path d="M55.7158 71.2422L53.1335 72.7812L58.3002 81.4504C58.7252 82.1635 59.6478 82.397 60.3609 81.972C61.074 81.547 61.3075 80.6244 60.8825 79.9114L55.7158 71.2422Z" fill="#3F2121"/>
<path d="M52.2273 89.7157C52.2876 90.0665 51.4364 92.9217 47.2106 94.3712" stroke="#DB8C74" stroke-width="0.88143" stroke-linecap="round" stroke-linejoin="round"/>
</g>
</g>
<defs>
<clipPath id="clip0_3099_21468">
<rect width="120" height="120" fill="white"/>
</clipPath>
</defs>
</svg>
