<svg width="400" height="215" viewBox="0 0 400 215" fill="none" xmlns="http://www.w3.org/2000/svg">
<g clip-path="url(#clip0_1337_272465)">
<circle cx="232.599" cy="-4.68127" r="201.319" stroke="#A9C6E4" stroke-width="2" stroke-dasharray="5.41 10.81"/>
<circle cx="232.623" cy="-12.7935" r="119.833" stroke="#A9C6E4" stroke-width="2" stroke-dasharray="5.41 10.81"/>
<circle cx="32.8906" cy="32.8906" r="32.8906" transform="matrix(-1 0 0 1 162.436 -17.2188)" fill="#DAECFF"/>
<path d="M154.077 30.8203C151.53 41.4562 140.843 48.0135 130.207 45.4663C119.571 42.9191 113.014 32.2321 115.561 21.5962C118.108 10.9603 128.795 4.40304 139.431 6.95022C150.067 9.4974 156.624 20.1844 154.077 30.8203Z" fill="#081A3D"/>
<path d="M110.377 42.3959C115.775 46.2769 122.398 48.5624 129.554 48.5624C136.711 48.5624 143.333 46.277 148.731 42.3962C144.605 36.1999 137.557 32.1171 129.554 32.1171C121.552 32.1171 114.503 36.1998 110.377 42.3959Z" fill="#E68944"/>
<ellipse cx="16.4937" cy="16.4035" rx="16.4937" ry="16.4035" transform="matrix(0.972823 0.231551 -0.234262 0.972174 117.617 -13.5483)" fill="#081A3D"/>
<ellipse cx="9.4839" cy="9.432" rx="9.4839" ry="9.432" transform="matrix(0.972823 0.231551 -0.234262 0.972174 131.742 -1.75677)" fill="#081A3D"/>
<path d="M113.36 11.1519L110.214 15.9845C109.831 16.5724 110.26 17.3473 110.965 17.3403L114.422 17.3062L122.007 24.1229L122.007 31.0161L122.007 32.9401C122.007 34.7861 122.254 36.7288 123.51 38.0829C126.237 41.0228 130.86 41.2785 134.923 39.283C136.829 38.347 136.669 36.4876 136.668 34.1584L135.298 24.1229L125.326 12.7169L113.36 11.1519Z" fill="#F9B8A4"/>
<path d="M122.007 30.7467C124.212 30.3807 127.791 29.7363 129.443 28.3889C129.913 28.0051 129.586 27.3809 128.977 27.3762L120.86 27.3132L122.007 30.7467Z" fill="#F49D82"/>
<path d="M135.597 19.6515C134.048 29.799 121.252 28.4202 115.452 27.2504C113.697 26.8963 112.433 25.4557 112.282 23.6817C111.942 19.6812 111.737 12.2209 113.966 5.79949C117.192 -3.49749 123.285 -2.99379 129.1 -1.00035C134.916 0.993086 138.823 10.3545 135.597 19.6515Z" fill="#F9B8A4"/>
<path d="M118.535 12.6828C118.376 12.2237 117.647 11.3352 116.006 11.4533" stroke="#081A3D" stroke-width="0.865934" stroke-linecap="round"/>
<path d="M134.002 -1.71656C131.722 -6.01244 125.921 -6.97059 122.291 -3.71833C119.217 -0.962804 118.923 3.79166 121.696 6.84766C124.518 9.95816 129.364 10.1465 132.422 7.26448L132.53 7.16283C134.967 4.86541 135.569 1.23665 134.002 -1.71656Z" fill="#081A3D"/>
<path d="M135.85 23.5788L143.585 12.0662C144.031 11.4027 143.94 10.5183 143.37 9.9574L135.36 2.0853C134.394 1.13523 132.751 1.66451 132.529 2.99752L130.303 16.3704C129.72 19.8737 132.162 23.1642 135.701 23.6454C135.76 23.6533 135.817 23.6275 135.85 23.5788Z" fill="#081A3D"/>
<path d="M130.766 -3.86779C127.306 -5.68245 123.44 -7.57658 119.755 -6.27143C116.099 -4.97661 113.063 -1.69403 112.018 2.64032L111.876 3.22966C111.719 3.88064 112.071 4.52235 112.662 4.66297C114.346 5.06386 116.103 4.3728 117.054 2.93476L118.361 0.960945C117.645 3.55723 119.234 6.22716 121.868 6.85415L124.429 7.46367C125.019 7.60428 125.625 7.19055 125.782 6.53958L132.082 -3.17753L130.766 -3.86779Z" fill="#081A3D"/>
<ellipse cx="3.58718" cy="3.59124" rx="3.58718" ry="3.59124" transform="matrix(-0.796544 0.606836 0.609893 0.790763 122.337 11.3807)" fill="#F49D82"/>
<path d="M121.197 11.0281C121.993 9.99121 120.256 7.98888 118.293 6.97606C117.571 6.60372 116.735 6.98019 116.352 7.6965C116.239 7.90705 116.363 8.16868 116.589 8.24676C118.459 8.89317 120.98 11.3104 121.197 11.0281Z" fill="#081A3D"/>
<path d="M128.372 11.2375C128.691 13.83 128.726 16.1123 130.488 15.898C131.096 15.8241 135.073 13.0541 134.754 10.4617C134.435 7.86924 132.748 5.94132 130.986 6.15556C129.223 6.36981 128.053 8.64508 128.372 11.2375Z" fill="#F9B8A4"/>
<path d="M131.587 12.2362C131.602 12.4385 131.78 12.5899 131.983 12.5745C132.187 12.5591 132.339 12.3826 132.324 12.1804C132.301 11.8854 132.206 11.4431 131.98 11.0601C131.751 10.6697 131.356 10.2978 130.744 10.2863C130.54 10.2825 130.371 10.4438 130.367 10.6466C130.363 10.8494 130.526 11.0169 130.73 11.0207C130.799 11.022 130.863 11.033 130.923 11.0529C130.76 11.084 130.605 11.1375 130.469 11.2318C130.217 11.4065 130.101 11.6698 130.043 11.9647C130.004 12.1638 130.135 12.3567 130.335 12.3958C130.535 12.4348 130.729 12.305 130.769 12.106C130.808 11.9055 130.861 11.8556 130.892 11.8339C130.943 11.7988 131.05 11.761 131.316 11.7474C131.372 11.7446 131.424 11.7297 131.47 11.7055C131.539 11.897 131.576 12.0913 131.587 12.2362Z" fill="#DB8C74"/>
<path d="M129.192 3.53832L124.073 1.89838L126.642 11.2292C126.668 11.3235 126.71 11.4128 126.766 11.4933C127.224 12.1508 128.258 11.8913 128.347 11.0964L129.192 3.53832Z" fill="#081A3D"/>
<path d="M116.501 -3.90796C117.554 -3.47777 117.52 -0.978448 116.423 1.67444C115.326 4.32733 113.583 6.12919 112.53 5.69901C111.476 5.26882 111.511 2.7695 112.608 0.116608C113.704 -2.53628 115.447 -4.33814 116.501 -3.90796Z" fill="#081A3D"/>
<path d="M118.699 -3.09084C119.811 -3.33778 121.222 -1.26894 121.852 1.53004C122.481 4.32902 122.09 6.79822 120.979 7.04515C119.867 7.29208 118.456 5.22324 117.826 2.42426C117.197 -0.374715 117.587 -2.84391 118.699 -3.09084Z" fill="#081A3D"/>
<path d="M121.646 16.822C122.604 16.5961 123.602 17.2064 123.445 18.1725C123.35 18.7575 123.141 19.3183 122.828 19.8226C122.515 20.327 122.105 20.7652 121.622 21.1122C121.138 21.4592 120.591 21.7082 120.011 21.8449C119.431 21.9816 118.829 22.0035 118.24 21.9092C117.652 21.8148 117.088 21.6062 116.58 21.2952C116.073 20.9842 115.632 20.5769 115.283 20.0965C114.706 19.3032 115.322 18.3125 116.28 18.0867L121.646 16.822Z" fill="white"/>
<g clip-path="url(#clip1_1337_272465)">
<rect width="87.6789" height="87.6789" rx="43.8394" transform="matrix(-1 0 0 1 269.264 144.295)" fill="#DAECFF"/>
<path d="M199.863 223.755C207.059 228.928 215.886 231.974 225.424 231.974C234.963 231.974 243.79 228.928 250.985 223.755C245.486 215.496 236.09 210.054 225.424 210.054C214.758 210.054 205.362 215.496 199.863 223.755Z" fill="#92417C"/>
<path d="M205.127 176.88C203.889 175.497 203.136 173.671 203.136 171.669C203.136 167.351 206.636 163.851 210.954 163.851C215.271 163.851 218.771 167.351 218.771 171.669C218.771 173.671 218.018 175.497 216.781 176.88C218.018 178.263 218.771 180.09 218.771 182.092C218.771 186.409 215.271 189.909 210.954 189.909C206.636 189.909 203.136 186.409 203.136 182.092C203.136 180.09 203.889 178.263 205.127 176.88Z" fill="#3F2121"/>
<path d="M216.31 198.492C216.422 198.305 216.543 198.12 216.672 197.94C219.298 194.257 224.412 193.4 228.095 196.026C231.777 198.652 232.634 203.766 230.008 207.449C227.382 211.132 222.268 211.989 218.585 209.362C218.414 209.24 218.249 209.113 218.09 208.98C218.235 209.755 218.141 210.574 217.789 211.316C218.874 212.178 219.106 213.748 218.292 214.889C217.452 216.067 215.816 216.341 214.638 215.501C213.938 215.002 213.557 214.221 213.539 213.423C213.041 213.317 212.556 213.11 212.114 212.795C210.421 211.587 210.008 209.252 211.169 207.539C210.455 207.389 209.759 207.092 209.126 206.641C206.671 204.89 206.1 201.481 207.851 199.026C209.601 196.57 213.011 195.999 215.466 197.75C215.778 197.973 216.059 198.222 216.31 198.492Z" fill="#3F2121"/>
<path d="M207.826 184.698L202.611 190.534C202.062 191.149 202.295 192.123 203.063 192.422L210.811 195.441L216.507 209.018L219.752 219.172C220.02 220.014 220.853 220.543 221.729 220.428L228.788 219.501C232.19 219.054 234.349 215.626 233.283 212.365L224.374 185.112L207.826 184.698Z" fill="#F9B8A4"/>
<path d="M216.436 208.902C219.136 208.191 224.703 206.731 226.646 204.865C227.232 204.302 226.724 203.509 225.913 203.577L214.464 204.574L216.436 208.902Z" fill="#F49D82"/>
<path d="M234.932 196.959C231.358 209.411 215.75 205.737 208.601 203.318C206.359 202.56 204.938 200.455 205.023 198.089C205.208 192.919 206.103 183.507 209.912 175.838C215.474 164.641 223.206 166.409 230.167 169.867C237.128 173.325 240.494 185.762 234.932 196.959Z" fill="#F9B8A4"/>
<circle cx="4.54885" cy="4.54885" r="4.54885" transform="matrix(-0.734308 0.678816 0.678816 0.734308 220.24 182.613)" fill="#F49D82"/>
<path d="M216.304 182.619C217.368 181.349 215.294 178.708 212.876 177.309C211.984 176.793 210.907 177.221 210.382 178.109C210.227 178.37 210.371 178.711 210.653 178.824C212.975 179.754 216.014 182.965 216.304 182.619Z" fill="#3F2121"/>
<path d="M217.301 190.513C218.556 190.09 219.97 190.789 219.88 192.111C219.826 192.912 219.614 193.694 219.258 194.413C218.901 195.132 218.407 195.773 217.802 196.301C217.198 196.829 216.496 197.232 215.735 197.488C214.975 197.745 214.171 197.848 213.371 197.794C212.57 197.74 211.788 197.528 211.069 197.172C210.351 196.815 209.709 196.321 209.181 195.716C208.31 194.718 209.012 193.306 210.268 192.883L213.784 191.698L217.301 190.513Z" fill="white"/>
<path d="M211.99 183.605C211.911 184.622 211.296 185.403 210.618 185.35C209.94 185.297 209.455 184.429 209.535 183.412C209.615 182.395 210.23 181.614 210.908 181.667C211.585 181.72 212.07 182.588 211.99 183.605Z" fill="#3F2121"/>
<path d="M227.589 156.499C226.161 154.632 223.91 153.428 221.377 153.428C217.438 153.428 214.18 156.341 213.639 160.131C213.094 160.492 212.627 160.935 212.25 161.463C209.365 165.507 212.889 172.969 220.122 178.13C223.522 180.556 227.137 182.042 230.313 182.515C230.009 183.291 229.726 184.053 229.468 184.785C228.317 188.049 228.901 191.496 229.94 194.319C228.845 195.275 228.152 196.681 228.152 198.248C228.152 200.502 229.583 202.422 231.587 203.149C231.39 203.558 231.279 204.017 231.279 204.502C231.279 206.229 232.68 207.629 234.406 207.629C234.467 207.629 234.527 207.627 234.586 207.624C234.47 207.951 234.406 208.304 234.406 208.671C234.406 208.919 234.435 209.159 234.489 209.39C233.797 209.964 233.357 210.83 233.357 211.798C233.357 213.525 234.757 214.925 236.484 214.925C238.211 214.925 239.611 213.525 239.611 211.798C239.611 211.551 239.582 211.311 239.528 211.08C240.22 210.506 240.66 209.64 240.66 208.671C240.66 207.837 240.334 207.079 239.802 206.519C241.479 206.19 242.745 204.713 242.745 202.939C242.745 201.906 242.316 200.974 241.627 200.31C241.824 200.325 242.023 200.333 242.224 200.333C246.541 200.333 250.041 196.833 250.041 192.515C250.041 191.315 249.771 190.178 249.287 189.162C251.021 187.728 252.126 185.56 252.126 183.134C252.126 180.577 250.898 178.307 249 176.88C250.898 175.454 252.126 173.184 252.126 170.626C252.126 166.309 248.626 162.809 244.309 162.809C242.933 162.809 241.639 163.165 240.516 163.789C240.611 163.303 240.66 162.801 240.66 162.288C240.66 157.97 237.16 154.47 232.843 154.47C230.82 154.47 228.977 155.239 227.589 156.499Z" fill="#3F2121"/>
<path d="M227.84 185.019C227.842 187.826 227.111 189.909 229.48 190.264C230.127 190.361 234.711 187.821 234.709 185.014C234.707 182.207 233.168 179.932 231.271 179.934C229.374 179.935 227.838 182.212 227.84 185.019Z" fill="#F9B8A4"/>
<path d="M231.12 186.493C231.11 186.711 231.279 186.895 231.496 186.905C231.714 186.915 231.898 186.746 231.908 186.529C231.922 186.211 231.878 185.728 231.69 185.291C231.497 184.845 231.127 184.398 230.48 184.307C230.264 184.276 230.065 184.427 230.034 184.642C230.004 184.858 230.154 185.057 230.37 185.088C230.443 185.098 230.51 185.118 230.571 185.147C230.394 185.159 230.222 185.196 230.066 185.279C229.777 185.433 229.62 185.699 229.521 186.005C229.453 186.212 229.567 186.435 229.774 186.502C229.981 186.57 230.203 186.456 230.271 186.249C230.338 186.041 230.401 185.994 230.437 185.975C230.495 185.944 230.613 185.918 230.897 185.938C230.956 185.942 231.013 185.933 231.065 185.913C231.113 186.126 231.127 186.338 231.12 186.493Z" fill="#F49D82"/>
<path d="M227.115 185.713L225.025 179.278L229.195 178.444L227.922 185.657C227.846 186.084 227.249 186.126 227.115 185.713Z" fill="#3F2121"/>
</g>
<g clip-path="url(#clip2_1337_272465)">
<rect width="81.4651" height="81.4651" rx="40.7325" transform="matrix(-1 0 0 1 94.459 50.7383)" fill="#B0D7ED"/>
<path d="M29.9762 124.567C36.662 129.373 44.8635 132.203 53.7261 132.203C62.5885 132.203 70.7899 129.373 77.4756 124.567C72.3659 116.893 63.6363 111.837 53.7258 111.837C43.8154 111.837 35.0859 116.893 29.9762 124.567Z" fill="#062F46"/>
<circle cx="53.5993" cy="86.1632" r="16.196" fill="#081A3D"/>
<path d="M38.9205 90.2118L33.8319 95.9065C33.3051 96.496 33.5185 97.4291 34.2491 97.7311L41.0059 100.524L45.2402 108.443L45.2402 119.71C45.2402 121.808 47.1236 123.403 49.1926 123.058L57.5173 121.671C59.2237 121.387 60.4432 119.864 60.3485 118.137L58.8177 90.2116L38.9205 90.2118Z" fill="#F9B8A4"/>
<path d="M45.2401 114.146C47.4726 113.896 53.0079 112.19 55.4996 109.798C56.0694 109.251 55.5758 108.48 54.7886 108.547L44.9696 109.377L45.2401 110.14V114.146Z" fill="#F49D82"/>
<path d="M65.2434 102.119C61.7728 114.212 46.6151 110.644 39.6729 108.295C37.4951 107.558 36.1153 105.514 36.1977 103.217C36.3776 98.1956 37.2461 89.0552 40.9457 81.6079C46.3474 70.7341 53.856 72.4509 60.6161 75.8091C67.3762 79.1673 70.6451 91.2455 65.2434 102.119Z" fill="#F9B8A4"/>
<circle cx="4.4176" cy="4.4176" r="4.4176" transform="matrix(-0.734308 0.678816 0.678816 0.734308 50.9766 88.1875)" fill="#F49D82"/>
<path d="M47.1534 88.1935C48.1865 86.9597 46.1727 84.3955 43.8246 83.0363C42.9582 82.5348 41.9119 82.9513 41.4021 83.8129C41.2518 84.0668 41.3912 84.398 41.6651 84.5077C43.9203 85.411 46.8722 88.5293 47.1534 88.1935Z" fill="#081A3D"/>
<ellipse cx="41.7723" cy="89.057" rx="1.19577" ry="1.79366" transform="rotate(4.49179 41.7723 89.057)" fill="#081A3D"/>
<path d="M56.6539 65.2497C60.0181 62.8236 65.9401 65.2875 69.8811 70.7526C71.2745 72.6849 72.2338 74.7336 72.7429 76.6822C75.4851 79.0752 76.8188 84.1414 74.8564 89.7061C72.474 96.4614 64.5433 106.111 63.7219 105.396C62.8238 104.614 57.5557 97.052 59.938 90.2967C60.1886 89.5859 60.4632 88.846 60.7583 88.0923C57.6743 87.6326 54.1641 86.1896 50.8619 83.8335C48.8198 82.3764 47.082 80.7302 45.7132 79.0319C45.2537 79.4671 44.7479 79.8949 44.2015 80.3042C40.8879 82.7864 37.3431 83.6528 36.2841 82.2392C35.4666 81.1479 36.3694 79.0171 38.3476 76.9602C36.3837 76.3958 35.0388 75.3032 34.918 73.944C34.7198 71.7109 37.9021 69.6034 42.0262 69.2371C42.175 69.224 42.323 69.2132 42.47 69.2048C42.6314 68.644 42.8791 68.1218 43.2171 67.6481C45.2881 64.7458 50.1801 64.4692 55.4276 66.5461C55.7561 66.04 56.1643 65.6028 56.6539 65.2497Z" fill="#081A3D"/>
<path d="M58.3568 90.524C58.3588 93.2502 57.648 95.2734 59.9491 95.618C60.5777 95.7121 65.0292 93.2452 65.0271 90.519C65.0251 87.7929 63.5302 85.584 61.6883 85.5854C59.8463 85.5868 58.3547 87.7979 58.3568 90.524Z" fill="#F9B8A4"/>
<path d="M61.5429 91.956C61.5334 92.1672 61.697 92.3462 61.9083 92.3557C62.1195 92.3651 62.2985 92.2016 62.3079 91.9903C62.3218 91.6822 62.2793 91.2126 62.096 90.788C61.9091 90.3553 61.5495 89.9209 60.9211 89.8325C60.7117 89.8031 60.5181 89.9489 60.4886 90.1584C60.4591 90.3678 60.605 90.5614 60.8144 90.5909C60.8855 90.6009 60.9503 90.6202 61.0094 90.6483C60.8377 90.6601 60.6711 90.6961 60.5195 90.7767C60.2389 90.9261 60.0865 91.1841 59.9896 91.482C59.9242 91.6831 60.0342 91.8992 60.2353 91.9646C60.4364 92.03 60.6525 91.92 60.7179 91.7189C60.7837 91.5164 60.8444 91.4713 60.8793 91.4528C60.9357 91.4227 61.0506 91.3971 61.3261 91.4163C61.3835 91.4203 61.4389 91.4114 61.4893 91.3921C61.5364 91.5989 61.5497 91.8046 61.5429 91.956Z" fill="#F49D82"/>
<path d="M57.6531 91.1977L55.624 84.9482L59.673 84.1384L58.4369 91.143C58.3636 91.5584 57.7833 91.5989 57.6531 91.1977Z" fill="#081A3D"/>
<path d="M47.7526 95.0963C48.8653 94.5897 50.2284 95.0983 50.2706 96.3201C50.2961 97.0599 50.1757 97.7975 49.9162 98.4908C49.6567 99.1841 49.2632 99.8195 48.7582 100.361C48.2531 100.902 47.6464 101.338 46.9727 101.645C46.299 101.952 45.5714 102.123 44.8316 102.148C44.0918 102.174 43.3542 102.053 42.6609 101.794C41.9676 101.534 41.3323 101.141 40.7911 100.636C39.8973 99.8018 40.4087 98.4397 41.5214 97.9332L47.7526 95.0963Z" fill="white"/>
</g>
<path d="M30.0271 -3.0041C30.7248 -3.51103 31.6696 -3.51103 32.3673 -3.0041L45.3628 6.43768C46.0606 6.94461 46.3525 7.84316 46.086 8.66339L41.1222 23.9405C40.8557 24.7607 40.0913 25.3161 39.2289 25.3161H23.1656C22.3031 25.3161 21.5388 24.7607 21.2723 23.9405L16.3084 8.66339C16.0419 7.84316 16.3339 6.94461 17.0316 6.43768L30.0271 -3.0041Z" fill="#FF8440"/>
<path fill-rule="evenodd" clip-rule="evenodd" d="M32.9642 -1.99746C33.149 -2.16777 33.1318 -2.46465 32.9284 -2.6124L32.6184 -2.83764C31.9207 -3.34457 30.9759 -3.34457 30.2782 -2.83764L17.2827 6.60415C16.5849 7.11107 16.293 8.00963 16.5595 8.82986L21.5233 24.107C21.7898 24.9272 22.5542 25.4825 23.4166 25.4825C23.5087 25.4825 23.5725 25.3901 23.5481 25.3013C23.5293 25.2331 23.514 25.1634 23.5024 25.0922L21.0705 10.1767C20.9628 9.51618 21.1942 8.84572 21.6864 8.39225L32.9642 -1.99746Z" fill="#F46A25"/>
<path opacity="0.3" fill-rule="evenodd" clip-rule="evenodd" d="M30.9719 -3.07463C31.5056 -3.18173 32.0738 -3.06799 32.5343 -2.73339L45.5298 6.70839C46.2276 7.21532 46.5195 8.11388 46.253 8.9341L41.2892 24.2112C41.0227 25.0315 40.2583 25.5868 39.3959 25.5868H23.3326C22.5043 25.5868 21.7665 25.0746 21.4732 24.3074L36.3093 21.3302C36.6549 21.2609 36.9381 21.0139 37.0537 20.6809L41.1531 8.88017C41.2728 8.5356 41.1944 8.15315 40.9489 7.88343L30.9719 -3.07463Z" fill="#F46A25"/>
<path d="M30.0271 -3.0041C30.7248 -3.51103 31.6696 -3.51103 32.3673 -3.0041L45.3628 6.43768C46.0606 6.94461 46.3525 7.84316 46.086 8.66339L41.1222 23.9405C40.8557 24.7607 40.0913 25.3161 39.2289 25.3161H23.1656C22.3031 25.3161 21.5388 24.7607 21.2723 23.9405L16.3084 8.66339C16.0419 7.84316 16.3339 6.94461 17.0316 6.43768L30.0271 -3.0041Z" stroke="#FFAA7B" stroke-width="1.79031"/>
<path d="M29.6355 7.39512C29.9101 7.01859 30.4746 7.02686 30.738 7.41128L32.6431 10.1911C32.7504 10.3476 32.9185 10.4517 33.1064 10.478L36.0596 10.8917C36.5475 10.9601 36.8003 11.5111 36.5339 11.9255L34.6804 14.8087C34.607 14.923 34.5697 15.0567 34.5735 15.1924L34.6677 18.6201C34.6808 19.0944 34.2135 19.4339 33.7665 19.2749L30.5656 18.1366C30.4192 18.0846 30.2594 18.0846 30.1131 18.1366L26.9121 19.2749C26.4651 19.4339 25.9979 19.0944 26.0109 18.6201L26.1043 15.2241C26.1086 15.0688 26.0592 14.9169 25.9645 14.7938L23.8928 12.1012C23.6035 11.7252 23.782 11.1759 24.237 11.0418L27.5064 10.078C27.6488 10.036 27.7735 9.94825 27.861 9.82825L29.6355 7.39512Z" fill="#F46A25"/>
<path d="M30.77 5.6012C31.0382 5.20986 31.6158 5.20986 31.884 5.6012L33.8046 8.40357C33.8924 8.53168 34.0216 8.62561 34.1706 8.66952L37.4293 9.63013C37.8844 9.76427 38.0628 10.3135 37.7735 10.6895L35.7018 13.3821C35.6071 13.5052 35.5577 13.6572 35.562 13.8124L35.6554 17.2085C35.6685 17.6827 35.2012 18.0222 34.7542 17.8632L31.5532 16.725C31.4069 16.6729 31.2471 16.6729 31.1008 16.725L27.8998 17.8632C27.4528 18.0222 26.9856 17.6827 26.9986 17.2085L27.092 13.8124C27.0963 13.6572 27.0469 13.5052 26.9522 13.3821L24.8805 10.6895C24.5912 10.3135 24.7696 9.76427 25.2247 9.63013L28.4834 8.66952C28.6324 8.62561 28.7616 8.53168 28.8494 8.40357L30.77 5.6012Z" fill="#FFE2D1"/>
<path fill-rule="evenodd" clip-rule="evenodd" d="M31.8842 5.60124C31.616 5.2099 31.0385 5.2099 30.7703 5.60124L30.1844 6.45603C30.4787 6.20498 30.9454 6.2495 31.1785 6.58961L33.0991 9.39198C33.1869 9.52009 33.3162 9.61401 33.4652 9.65793L36.7239 10.6185C37.0969 10.7285 37.2841 11.1175 37.18 11.4612L37.7738 10.6896C38.0631 10.3136 37.8846 9.76432 37.4296 9.63017L34.1708 8.66956C34.0219 8.62565 33.8926 8.53172 33.8048 8.40361L31.8842 5.60124ZM35.5912 13.5975L34.9964 14.3705C34.9017 14.4936 34.8523 14.6456 34.8566 14.8008L34.9418 17.9017C35.3228 17.9246 35.6669 17.6164 35.6556 17.2085L35.5622 13.8125C35.5602 13.7392 35.5702 13.6666 35.5912 13.5975ZM24.7923 10.5381L27.778 9.65793C27.9269 9.61401 28.0562 9.52009 28.144 9.39198L28.7309 8.53562C28.6593 8.59671 28.5752 8.64258 28.4836 8.66956L25.2249 9.63017C24.8281 9.74716 24.6416 10.1799 24.7923 10.5381Z" fill="white"/>
<g clip-path="url(#clip3_1337_272465)">
<g clip-path="url(#clip4_1337_272465)">
<path d="M194.603 75.5526C195.419 75.1596 196.37 75.1596 197.186 75.5526L212.637 82.9933C213.453 83.3862 214.045 84.1294 214.247 85.0125L218.063 101.731C218.264 102.615 218.053 103.541 217.488 104.249L206.796 117.657C206.231 118.365 205.375 118.778 204.469 118.778H187.32C186.414 118.778 185.558 118.365 184.993 117.657L174.301 104.249C173.736 103.541 173.525 102.615 173.726 101.731L177.542 85.0125C177.744 84.1294 178.337 83.3862 179.153 82.9933L194.603 75.5526Z" fill="#6D63E6"/>
<path fill-rule="evenodd" clip-rule="evenodd" d="M195.962 76.3244C196.387 76.0417 196.259 75.4514 195.756 75.5368C195.484 75.583 195.217 75.6672 194.963 75.7895L179.513 83.2302C178.697 83.6231 178.104 84.3663 177.902 85.2494L174.086 101.968C173.885 102.851 174.096 103.778 174.661 104.486L185.353 117.894C185.918 118.602 186.774 119.014 187.68 119.014H204.829C205.735 119.014 206.591 118.602 207.156 117.894C207.366 117.63 207.169 117.241 206.832 117.255L198.604 117.591C197.87 117.621 197.151 117.378 196.585 116.91L183.213 105.844C182.53 105.279 182.134 104.438 182.134 103.551V87.1255C182.134 86.1298 182.632 85.2001 183.461 84.6482L195.962 76.3244Z" fill="#473DBF"/>
<path opacity="0.3" fill-rule="evenodd" clip-rule="evenodd" d="M195.487 75.7239C196.137 75.576 196.825 75.6496 197.438 75.9446L212.889 83.3852C213.705 83.7782 214.297 84.5214 214.499 85.4044L218.315 102.123C218.517 103.006 218.305 103.933 217.74 104.641L207.048 118.049C206.483 118.757 205.627 119.17 204.721 119.17H200.886C201.033 119.042 201.167 118.9 201.288 118.743L212.351 104.403C212.885 103.712 213.087 102.821 212.906 101.967L209.065 83.8923C208.879 83.0147 208.306 82.2681 207.507 81.8602L195.487 75.7239Z" fill="#473DBF"/>
<path d="M194.603 75.5526C195.419 75.1596 196.37 75.1596 197.186 75.5526L212.637 82.9933C213.453 83.3862 214.045 84.1294 214.247 85.0125L218.063 101.731C218.264 102.615 218.053 103.541 217.488 104.249L206.796 117.657C206.231 118.365 205.375 118.778 204.469 118.778H187.32C186.414 118.778 185.558 118.365 184.993 117.657L174.301 104.249C173.736 103.541 173.525 102.615 173.726 101.731L177.542 85.0125C177.744 84.1294 178.337 83.3862 179.153 82.9933L194.603 75.5526Z" stroke="#C5C0FF" stroke-width="2.70354"/>
<path d="M188.233 102.107L196.066 87.5945C196.405 86.9659 197.359 87.2069 197.359 87.9213V96.1674L206.565 95.7711C207.113 95.7476 207.467 96.3427 207.185 96.8126L198.637 111.047C198.278 111.645 197.359 111.391 197.359 110.693V102.825L188.863 103.122C188.331 103.14 187.981 102.575 188.233 102.107Z" fill="#473DBF"/>
<path d="M186.402 100.503L194.235 85.9903C194.574 85.3617 195.528 85.6027 195.528 86.3171V94.5632L204.734 94.1669C205.282 94.1434 205.636 94.7385 205.354 95.2084L196.806 109.443C196.447 110.041 195.528 109.786 195.528 109.089V101.221L187.031 101.518C186.5 101.536 186.15 100.971 186.402 100.503Z" fill="#C5C0FF"/>
<path d="M186.402 100.503L194.235 85.9903C194.574 85.3617 195.528 85.6027 195.528 86.3171V94.5632L204.734 94.1669C205.282 94.1434 205.636 94.7385 205.354 95.2084L196.806 109.443C196.447 110.041 195.528 109.786 195.528 109.089V101.221L187.031 101.518C186.5 101.536 186.15 100.971 186.402 100.503Z" fill="#C5C0FF"/>
<path fill-rule="evenodd" clip-rule="evenodd" d="M187.512 98.4543L186.406 100.504C186.153 100.972 186.504 101.537 187.035 101.519L195.532 101.222V109.09C195.532 109.787 196.451 110.042 196.81 109.444L198.039 107.398C197.618 107.642 197.006 107.368 197.006 106.798V98.5883L188.179 98.896C187.864 98.907 187.612 98.7122 187.512 98.4543Z" fill="#C5C0FF"/>
<path fill-rule="evenodd" clip-rule="evenodd" d="M187.512 98.4543L186.406 100.504C186.153 100.972 186.504 101.537 187.035 101.519L195.532 101.222V109.09C195.532 109.787 196.451 110.042 196.81 109.444L198.039 107.398C197.618 107.642 197.006 107.368 197.006 106.798V98.5883L188.179 98.896C187.864 98.907 187.612 98.7122 187.512 98.4543Z" fill="white"/>
</g>
</g>
<path d="M118.761 135.759C119.526 135.48 120.365 135.48 121.131 135.759L136.021 141.178C136.786 141.457 137.429 141.996 137.836 142.702L145.759 156.424C146.166 157.13 146.312 157.956 146.171 158.758L143.419 174.363C143.278 175.165 142.858 175.892 142.234 176.416L130.096 186.601C129.472 187.125 128.683 187.412 127.868 187.412H112.023C111.208 187.412 110.42 187.125 109.796 186.601L97.6573 176.416C97.0333 175.892 96.6137 175.165 96.4722 174.363L93.7207 158.758C93.5792 157.956 93.7249 157.13 94.1322 156.424L102.055 142.702C102.462 141.996 103.105 141.457 103.871 141.178L118.761 135.759Z" fill="#209FB1"/>
<path fill-rule="evenodd" clip-rule="evenodd" d="M120.225 136.792C120.707 136.471 120.58 135.789 120.003 135.846C119.717 135.874 119.433 135.938 119.159 136.038L104.269 141.457C103.504 141.736 102.861 142.275 102.453 142.981L94.5306 156.703C94.1233 157.409 93.9776 158.235 94.1191 159.038L96.8706 174.642C97.0121 175.445 97.4316 176.171 98.0556 176.695L110.194 186.88C110.818 187.404 111.607 187.691 112.421 187.691H128.267C129.081 187.691 129.87 187.404 130.494 186.88L131.683 185.883C132.189 185.458 131.87 184.633 131.209 184.66L123.06 184.992C122.205 185.027 121.368 184.745 120.709 184.2L105.142 171.317C104.347 170.659 103.886 169.681 103.886 168.648V149.526C103.886 148.367 104.466 147.285 105.431 146.642L120.225 136.792ZM136.465 141.474C136.728 141.575 136.977 141.706 137.207 141.865L136.465 141.474Z" fill="#047686"/>
<path opacity="0.3" fill-rule="evenodd" clip-rule="evenodd" d="M120.85 136.06C121.039 136.095 121.225 136.146 121.407 136.212L136.297 141.631C137.063 141.91 137.706 142.449 138.113 143.155L146.036 156.878C146.443 157.583 146.589 158.409 146.447 159.212L143.696 174.817C143.554 175.619 143.135 176.345 142.511 176.869L130.372 187.054C129.748 187.578 128.96 187.865 128.145 187.865H123.701L136.118 177.092C136.72 176.569 137.124 175.855 137.261 175.07L140.197 158.228C140.331 157.456 140.201 156.662 139.826 155.975L131.751 141.158C131.359 140.438 130.724 139.881 129.959 139.585L120.85 136.06Z" fill="#047686"/>
<path d="M107.947 173.756C116.407 175.41 126.176 175.41 134.636 173.756C135.285 173.6 135.854 173.215 136.234 172.672C136.615 172.129 136.782 171.466 136.702 170.81V159.762C136.645 159.659 136.561 159.574 136.46 159.515C136.358 159.455 136.242 159.424 136.124 159.424C136.006 159.424 135.89 159.455 135.788 159.515C135.686 159.574 135.602 159.659 135.545 159.762L128.529 165.572C128.459 165.658 128.371 165.727 128.271 165.774C128.171 165.821 128.061 165.846 127.95 165.846C127.839 165.846 127.73 165.821 127.63 165.774C127.529 165.727 127.441 165.658 127.372 165.572L121.338 153.706C121.276 153.621 121.196 153.552 121.102 153.505C121.009 153.457 120.905 153.433 120.8 153.433C120.695 153.433 120.592 153.457 120.498 153.505C120.405 153.552 120.324 153.621 120.263 153.706L114.56 165.572C114.49 165.644 114.407 165.701 114.314 165.74C114.222 165.779 114.123 165.799 114.022 165.799C113.922 165.799 113.822 165.779 113.73 165.74C113.638 165.701 113.554 165.644 113.485 165.572L106.955 158.861C106.859 158.785 106.744 158.737 106.622 158.722C106.5 158.708 106.376 158.727 106.264 158.778C106.153 158.829 106.058 158.91 105.99 159.011C105.922 159.113 105.884 159.231 105.88 159.352V170.81C105.76 171.472 105.91 172.154 106.298 172.707C106.685 173.259 107.278 173.636 107.947 173.756Z" fill="#047686"/>
<path d="M106.617 170.828C115.076 172.482 123.781 172.482 132.241 170.828C132.89 170.673 133.459 170.287 133.839 169.744C134.22 169.201 134.387 168.538 134.307 167.882V156.834C134.25 156.732 134.166 156.646 134.065 156.587C133.963 156.527 133.847 156.496 133.729 156.496C133.611 156.496 133.495 156.527 133.393 156.587C133.291 156.646 133.207 156.732 133.15 156.834L127.199 162.644C127.129 162.73 127.041 162.799 126.941 162.846C126.841 162.893 126.731 162.918 126.62 162.918C126.509 162.918 126.4 162.893 126.299 162.846C126.199 162.799 126.111 162.73 126.041 162.644L120.007 150.778C119.946 150.693 119.866 150.624 119.772 150.577C119.679 150.53 119.575 150.505 119.47 150.505C119.365 150.505 119.262 150.53 119.168 150.577C119.075 150.624 118.994 150.693 118.933 150.778L113.229 162.644C113.16 162.716 113.077 162.773 112.984 162.812C112.892 162.851 112.793 162.871 112.692 162.871C112.592 162.871 112.492 162.851 112.4 162.812C112.308 162.773 112.224 162.716 112.155 162.644L105.625 155.934C105.529 155.857 105.414 155.809 105.292 155.795C105.17 155.78 105.046 155.799 104.934 155.85C104.823 155.901 104.728 155.982 104.66 156.083C104.592 156.185 104.554 156.303 104.55 156.425V167.882C104.43 168.544 104.58 169.226 104.967 169.779C105.355 170.331 105.948 170.709 106.617 170.828Z" fill="#A6FFFF"/>
<path fill-rule="evenodd" clip-rule="evenodd" d="M134.3 160.97L134.3 156.834C134.243 156.732 134.159 156.647 134.057 156.587C133.955 156.528 133.839 156.496 133.721 156.496C133.603 156.496 133.487 156.528 133.385 156.587C133.284 156.647 133.2 156.732 133.143 156.834L127.297 162.541L128.703 165.305C128.772 165.39 128.861 165.459 128.961 165.507C129.061 165.554 129.17 165.579 129.281 165.579C129.392 165.579 129.502 165.554 129.602 165.507C129.702 165.459 129.79 165.39 129.86 165.305L134.3 160.97ZM107.172 170.936C107.175 170.805 107.188 170.673 107.212 170.543L107.212 159.085C107.215 158.964 107.253 158.845 107.321 158.744C107.389 158.642 107.484 158.562 107.595 158.511C107.707 158.46 107.831 158.44 107.953 158.455C108.006 158.462 108.058 158.474 108.108 158.493L105.617 155.934C105.521 155.858 105.406 155.81 105.284 155.795C105.162 155.78 105.038 155.799 104.927 155.85C104.815 155.901 104.72 155.982 104.652 156.084C104.584 156.185 104.547 156.303 104.543 156.425L104.543 167.882C104.422 168.544 104.572 169.227 104.96 169.779C105.348 170.332 105.941 170.709 106.609 170.829C106.797 170.865 106.984 170.901 107.172 170.936ZM112.39 162.812L114.816 165.305C114.886 165.377 114.969 165.434 115.061 165.473C115.154 165.512 115.253 165.532 115.353 165.532C115.454 165.532 115.553 165.512 115.645 165.473C115.738 165.434 115.821 165.377 115.891 165.305L121.477 153.682L120 150.778C119.939 150.694 119.858 150.625 119.765 150.577C119.671 150.53 119.568 150.505 119.463 150.505C119.358 150.505 119.254 150.53 119.161 150.577C119.067 150.625 118.987 150.694 118.925 150.778L113.222 162.645C113.153 162.717 113.069 162.774 112.977 162.813C112.884 162.852 112.785 162.872 112.685 162.872C112.584 162.872 112.485 162.852 112.393 162.813C112.392 162.812 112.391 162.812 112.39 162.812Z" fill="white"/>
<path d="M118.761 135.759C119.526 135.48 120.365 135.48 121.131 135.759L136.021 141.178C136.786 141.457 137.429 141.996 137.836 142.702L145.759 156.424C146.166 157.13 146.312 157.956 146.171 158.758L143.419 174.363C143.278 175.165 142.858 175.892 142.234 176.416L130.096 186.601C129.472 187.125 128.683 187.412 127.868 187.412H112.023C111.208 187.412 110.42 187.125 109.796 186.601L97.6573 176.416C97.0333 175.892 96.6137 175.165 96.4722 174.363L93.7207 158.758C93.5792 157.956 93.7249 157.13 94.1322 156.424L102.055 142.702C102.462 141.996 103.105 141.457 103.871 141.178L118.761 135.759Z" stroke="#4CE5E5" stroke-width="3.30433"/>
<path d="M329.887 158.283C330.499 157.929 331.253 157.929 331.865 158.283L343.167 164.807C343.779 165.161 344.156 165.814 344.156 166.521V179.57C344.156 180.277 343.779 180.93 343.167 181.284L331.865 187.809C331.253 188.162 330.499 188.162 329.887 187.809L318.586 181.284C317.973 180.93 317.596 180.277 317.596 179.57V166.521C317.596 165.814 317.973 165.161 318.586 164.807L329.887 158.283Z" fill="#E653AD"/>
<path fill-rule="evenodd" clip-rule="evenodd" d="M332.104 158.441C331.492 158.088 330.738 158.088 330.125 158.441L318.824 164.966C318.212 165.319 317.835 165.972 317.835 166.679V179.729C317.835 180.436 318.212 181.089 318.824 181.442L330.125 187.967C330.738 188.32 331.492 188.32 332.104 187.967L343.405 181.442C343.612 181.323 343.791 181.17 343.939 180.992C344.159 180.727 343.852 180.464 343.551 180.631L332.602 186.731C331.89 187.128 331.006 187.047 330.378 186.527L321.946 179.549C321.492 179.173 321.229 178.615 321.229 178.025V167.105C321.229 166.443 321.56 165.825 322.111 165.458L331.432 159.252C331.6 159.14 331.782 159.056 331.97 159.001C332.127 158.955 332.246 158.523 332.104 158.441Z" fill="#C31B82"/>
<path d="M329.165 166.941C329.155 168.039 328.923 169.124 328.482 170.13C328.041 171.136 327.401 172.042 326.6 172.793C325.85 173.742 325.495 174.945 325.609 176.149C325.723 177.354 326.298 178.468 327.214 179.259C328.374 180.057 329.766 180.447 331.172 180.369C332.578 180.29 333.917 179.748 334.981 178.826C338.594 176.08 335.993 170.228 333.356 169.434C333.356 169.434 333.717 171.493 332.38 171.926C332.38 171.926 331.875 167.989 329.165 166.941Z" fill="#C31B82"/>
<path d="M328.316 166.039C328.306 167.137 328.074 168.222 327.633 169.228C327.192 170.233 326.552 171.139 325.751 171.891C325.001 172.84 324.646 174.043 324.76 175.247C324.875 176.452 325.45 177.566 326.366 178.357C327.526 179.155 328.918 179.545 330.323 179.467C331.729 179.388 333.069 178.845 334.133 177.923C337.745 175.178 335.144 169.326 332.507 168.532C332.507 168.532 332.868 170.591 331.532 171.024C331.532 171.024 331.026 167.087 328.316 166.039Z" fill="#FFDCF1"/>
<path d="M327.197 171.891C328.481 170.541 329.347 168.847 329.689 167.015C329.302 166.61 328.834 166.29 328.316 166.075C328.306 167.168 328.073 168.247 327.632 169.247C327.191 170.247 326.551 171.146 325.751 171.891C325.001 172.84 324.646 174.043 324.76 175.247C324.875 176.452 325.45 177.566 326.366 178.357C327.631 179.234 329.172 179.619 330.701 179.441C329.652 179.321 328.648 178.949 327.775 178.357C326.872 177.556 326.309 176.441 326.202 175.239C326.094 174.037 326.45 172.839 327.197 171.891Z" fill="white"/>
<path opacity="0.3" fill-rule="evenodd" clip-rule="evenodd" d="M330.325 158.408C330.877 158.195 331.502 158.24 332.024 158.541L343.325 165.066C343.937 165.419 344.314 166.072 344.314 166.779V179.829C344.314 180.536 343.937 181.189 343.325 181.542L332.024 188.067C331.412 188.42 330.658 188.42 330.045 188.067L329.492 187.747L339.682 181.672C340.277 181.317 340.643 180.677 340.647 179.984L340.725 165.886C340.729 165.193 340.37 164.548 339.779 164.186L330.325 158.408Z" fill="#C31B82"/>
<path d="M329.887 158.283C330.499 157.929 331.253 157.929 331.865 158.283L343.167 164.807C343.779 165.161 344.156 165.814 344.156 166.521V179.57C344.156 180.277 343.779 180.93 343.167 181.284L331.865 187.809C331.253 188.162 330.499 188.162 329.887 187.809L318.586 181.284C317.973 180.93 317.596 180.277 317.596 179.57V166.521C317.596 165.814 317.973 165.161 318.586 164.807L329.887 158.283Z" stroke="#FF92D5" stroke-width="1.88793"/>
<path d="M374.24 14.6951C375.618 16.0731 375.618 18.3073 374.24 19.6854L351.883 42.0423C350.505 43.4203 348.271 43.4203 346.893 42.0423L324.536 19.6854C323.158 18.3073 323.158 16.0731 324.536 14.6951L346.893 -7.66184C348.271 -9.03987 350.505 -9.03987 351.883 -7.66184L374.24 14.6951Z" fill="#FCD454"/>
<path fill-rule="evenodd" clip-rule="evenodd" d="M374.24 14.6952C375.618 16.0732 375.618 18.3074 374.24 19.6855L370.614 23.3115C370.568 23.3569 370.487 23.3027 370.507 23.2418C370.526 23.1853 370.458 23.146 370.416 23.1881L351.706 41.8974C350.328 43.2755 348.094 43.2755 346.716 41.8974L324.359 19.5405C323.982 19.1637 324.399 18.8751 324.776 19.2519L342.129 36.6052C343.507 37.9833 345.741 37.9833 347.119 36.6052L366.373 17.3518C366.648 17.0762 366.648 16.6293 366.373 16.3537L347.296 -2.72312C345.918 -4.10116 343.684 -4.10116 342.306 -2.72313L324.734 14.8487C324.534 15.048 324.336 14.8945 324.536 14.6952L346.893 -7.66173C348.271 -9.03976 350.505 -9.03976 351.883 -7.66173L374.24 14.6952Z" fill="#F6C459"/>
<path opacity="0.2" fill-rule="evenodd" clip-rule="evenodd" d="M323.658 19.5405C322.28 18.1625 322.28 15.9283 323.658 14.5502L323.824 14.3842C324.067 14.1404 324.472 14.1813 324.716 14.4251L324.99 14.6985C325.06 14.769 325.175 14.7657 325.245 14.6952L347.602 -7.66166C348.98 -9.0397 351.215 -9.0397 352.593 -7.66167L374.95 14.6952C376.328 16.0733 376.328 18.3075 374.95 19.6855L374.118 20.5172C374.103 20.5321 374.079 20.5321 374.064 20.5171L373.724 20.1766C373.448 19.901 373.001 19.901 372.726 20.1766L351.005 41.8974C350.488 42.4144 349.85 42.7375 349.183 42.8665C349.164 42.8702 349.156 42.8936 349.17 42.9073C349.187 42.9244 349.171 42.9529 349.148 42.9463C349.099 42.933 349.052 42.9185 349.004 42.903C348.995 42.9 348.985 42.8991 348.975 42.9004C347.924 43.0393 346.822 42.705 346.014 41.8974L323.658 19.5405ZM331.747 21.4554C331.508 21.2166 331.466 20.8365 331.698 20.5911C331.722 20.5661 331.746 20.5415 331.77 20.5171L350.422 1.86528C351.8 0.487246 354.034 0.487247 355.412 1.86528L370.697 17.1502C370.973 17.4258 370.973 17.8727 370.697 18.1483L352.063 36.782C350.685 38.1601 348.451 38.16 347.073 36.782L331.747 21.4554Z" fill="#F6C459"/>
<path d="M374.24 14.6951C375.618 16.0731 375.618 18.3073 374.24 19.6854L351.883 42.0423C350.505 43.4203 348.271 43.4203 346.893 42.0423L324.536 19.6854C323.158 18.3073 323.158 16.0731 324.536 14.6951L346.893 -7.66184C348.271 -9.03987 350.505 -9.03987 351.883 -7.66184L374.24 14.6951Z" stroke="#FFF5C0" stroke-width="3.03616"/>
<circle cx="347.913" cy="19.3932" r="11.0267" transform="rotate(90 347.913 19.3932)" fill="#F6C459"/>
<circle cx="349.629" cy="17.1883" r="11.0267" transform="rotate(90 349.629 17.1883)" fill="#FFF5C0"/>
<path opacity="0.7" fill-rule="evenodd" clip-rule="evenodd" d="M339.78 12.2246C341.802 9.86306 344.805 8.36652 348.158 8.36652C354.248 8.36653 359.185 13.3033 359.185 19.3932C359.185 21.1787 358.761 22.8651 358.007 24.3569C359.658 22.4293 360.655 19.9252 360.655 17.1883C360.655 11.0984 355.718 6.16162 349.629 6.16162C345.324 6.16162 341.596 8.62799 339.78 12.2246Z" fill="white"/>
<g clip-path="url(#clip5_1337_272465)">
<rect width="54.9736" height="54.9736" rx="27.4868" transform="matrix(-1 0 0 1 327.973 52.9141)" fill="#B0D7ED"/>
<path d="M284.46 102.734C288.971 105.978 294.506 107.888 300.486 107.888C306.467 107.888 312.001 105.978 316.513 102.735C313.065 97.5564 307.174 94.1443 300.486 94.1443C293.798 94.1443 287.908 97.5563 284.46 102.734Z" fill="#062F46"/>
<circle cx="300.4" cy="76.8192" r="10.9293" fill="#081A3D"/>
<path d="M290.495 79.5513L287.061 83.3941C286.705 83.7919 286.849 84.4216 287.342 84.6254L291.902 86.5102L294.759 91.8536L294.759 99.4573C294.759 100.873 296.03 101.949 297.426 101.717L303.044 100.78C304.196 100.588 305.019 99.5613 304.955 98.3956L303.922 79.5512L290.495 79.5513Z" fill="#F9B8A4"/>
<path d="M294.759 95.7026C296.266 95.5337 300.001 94.3828 301.682 92.7683C302.067 92.3991 301.734 91.8793 301.202 91.9242L294.577 92.4844L294.759 92.9991V95.7026Z" fill="#F49D82"/>
<path d="M308.258 87.5866C305.916 95.7469 295.688 93.3394 291.003 91.7543C289.533 91.257 288.602 89.8775 288.658 88.3271C288.779 84.9388 289.365 78.7708 291.862 73.7452C295.507 66.4075 300.574 67.566 305.136 69.8321C309.697 72.0983 311.903 80.2488 308.258 87.5866Z" fill="#F9B8A4"/>
<circle cx="2.98105" cy="2.98105" r="2.98105" transform="matrix(-0.734308 0.678816 0.678816 0.734308 298.63 78.1852)" fill="#F49D82"/>
<path d="M296.05 78.1893C296.747 77.3567 295.388 75.6264 293.804 74.7092C293.219 74.3708 292.513 74.6518 292.169 75.2332C292.067 75.4046 292.162 75.6281 292.346 75.7021C293.868 76.3117 295.86 78.4159 296.05 78.1893Z" fill="#081A3D"/>
<ellipse cx="292.419" cy="78.772" rx="0.806923" ry="1.21038" transform="rotate(4.49179 292.419 78.772)" fill="#081A3D"/>
<path d="M302.462 62.7065C304.732 61.0694 308.728 62.7321 311.388 66.42C312.328 67.7239 312.975 69.1064 313.319 70.4214C315.169 72.0362 316.069 75.4549 314.745 79.21C313.137 83.7686 307.786 90.2802 307.231 89.7977C306.625 89.2703 303.07 84.1672 304.678 79.6086C304.847 79.129 305.032 78.6297 305.231 78.121C303.15 77.8108 300.782 76.8371 298.553 75.2471C297.175 74.2639 296.002 73.153 295.079 72.007C294.769 72.3007 294.427 72.5893 294.059 72.8655C291.823 74.5405 289.43 75.1252 288.716 74.1713C288.164 73.4349 288.773 71.997 290.108 70.609C288.783 70.2281 287.876 69.4908 287.794 68.5736C287.66 67.0667 289.808 65.6445 292.591 65.3973C292.691 65.3885 292.791 65.3812 292.89 65.3755C292.999 64.9971 293.166 64.6447 293.394 64.325C294.792 62.3665 298.093 62.1799 301.634 63.5814C301.856 63.2399 302.131 62.9449 302.462 62.7065Z" fill="#081A3D"/>
<path d="M303.611 79.762C303.612 81.6016 303.132 82.9669 304.685 83.1994C305.109 83.2629 308.113 81.5982 308.112 79.7586C308.11 77.9189 307.102 76.4284 305.859 76.4293C304.616 76.4302 303.609 77.9223 303.611 79.762Z" fill="#F9B8A4"/>
<path d="M305.761 80.7283C305.754 80.8708 305.865 80.9916 306.007 80.998C306.15 81.0044 306.27 80.894 306.277 80.7514C306.286 80.5435 306.257 80.2266 306.134 79.9401C306.008 79.6481 305.765 79.355 305.341 79.2953C305.2 79.2755 305.069 79.3739 305.049 79.5152C305.029 79.6565 305.128 79.7872 305.269 79.8071C305.317 79.8138 305.361 79.8269 305.401 79.8458C305.285 79.8538 305.172 79.8781 305.07 79.9325C304.881 80.0333 304.778 80.2074 304.712 80.4084C304.668 80.5441 304.742 80.6899 304.878 80.7341C305.014 80.7782 305.16 80.704 305.204 80.5683C305.248 80.4316 305.289 80.4012 305.313 80.3887C305.351 80.3684 305.428 80.3511 305.614 80.3641C305.653 80.3667 305.69 80.3608 305.724 80.3478C305.756 80.4873 305.765 80.6261 305.761 80.7283Z" fill="#F49D82"/>
<path d="M303.136 80.2166L301.767 75.9993L304.499 75.4529L303.665 80.1797C303.615 80.46 303.224 80.4873 303.136 80.2166Z" fill="#081A3D"/>
<path d="M296.454 82.8474C297.205 82.5055 298.125 82.8487 298.153 83.6732C298.171 84.1725 298.089 84.6702 297.914 85.1381C297.739 85.6059 297.473 86.0346 297.133 86.3998C296.792 86.7651 296.382 87.0596 295.928 87.2665C295.473 87.4735 294.982 87.5889 294.483 87.6062C293.984 87.6234 293.486 87.5422 293.018 87.367C292.55 87.1919 292.122 86.9264 291.756 86.5856C291.153 86.0227 291.498 85.1036 292.249 84.7617L296.454 82.8474Z" fill="white"/>
</g>
</g>
<defs>
<clipPath id="clip0_1337_272465">
<rect width="400" height="215" fill="white"/>
</clipPath>
<clipPath id="clip1_1337_272465">
<rect width="87.6789" height="87.6789" rx="43.8394" transform="matrix(-1 0 0 1 269.264 144.295)" fill="white"/>
</clipPath>
<clipPath id="clip2_1337_272465">
<rect width="81.4651" height="81.4651" rx="40.7325" transform="matrix(-1 0 0 1 94.459 50.7383)" fill="white"/>
</clipPath>
<clipPath id="clip3_1337_272465">
<rect width="48.6637" height="48.6637" fill="white" transform="translate(171.824 73.583)"/>
</clipPath>
<clipPath id="clip4_1337_272465">
<rect width="48.6637" height="48.6637" fill="white" transform="translate(171.825 73.5841)"/>
</clipPath>
<clipPath id="clip5_1337_272465">
<rect width="54.9736" height="54.9736" rx="27.4868" transform="matrix(-1 0 0 1 327.973 52.9141)" fill="white"/>
</clipPath>
</defs>
</svg>
